# xmcd CD database file
# Copyright (C) 1993-1998 Ti Kan
#
# Track frame offsets:
# 150
# 23475
# 43325
# 63450
# 83175
# 101525
# 125300
# 145875
# 166725
# 183000
# 198225
#
# Disc length: 3032 seconds
# Revision: 0
# Processed by: cddbd v1.4b41PL1 Copyright (c) Steve Scherf et al.
# Submitted via: CDSpectrumPro v3.3.331
#
DISCID=880bd60b
DTITLE=Queen - A Kind Of Magic
DYEAR=1900
DGENRE=
TTITLE0=One Vision
TTITLE1=A Kind Of Magic
TTITLE2=One Year Of Love
TTITLE3=Pain Is So Close To Pleasure
TTITLE4=Friends Will Be Friends
TTITLE5=Who Wants To Live Forever
TTITLE6=Gimme The Prize (Kurgan's Theme)
TTITLE7=Don't Lose Your Head
TTITLE8=Princes Of The Universe
TTITLE9=Forever
TTITLE10=One Vision - Extended Vision
EXTD=
EXTT0=
EXTT1=
EXTT2=
EXTT3=
EXTT4=
EXTT5=
EXTT6=
EXTT7=
EXTT8=
EXTT9=
EXTT10=
PLAYORDER=
